<svg width="45" height="45" viewBox="0 0 45 45" fill="none" xmlns="http://www.w3.org/2000/svg">
<g id="facebook_icon 1" style="mix-blend-mode:luminosity" clip-path="url(#clip0_6_213)">
<g id="g5991">
<path id="rect2987" d="M39.375 0H5.625C2.5184 0 0 2.5184 0 5.625V39.375C0 42.4816 2.5184 45 5.625 45H39.375C42.4816 45 45 42.4816 45 39.375V5.625C45 2.5184 42.4816 0 39.375 0Z" fill="#3B5998"/>
<path id="f_1_" d="M25.2218 40.0781V24.0414H30.6045L31.4105 17.7921H25.2219V13.8023C25.2219 11.9928 25.7247 10.7596 28.3187 10.7596L31.6283 10.7586V5.16867C31.0561 5.09187 29.092 4.92188 26.8059 4.92188C22.0345 4.92188 18.7683 7.83508 18.7683 13.1834V17.7922H13.3717V24.0414H18.7682V40.0781L25.2218 40.0781Z" fill="white"/>
</g>
</g>
<defs>
<clipPath id="clip0_6_213">
<rect width="45" height="45" fill="white"/>
</clipPath>
</defs>
</svg>
