<svg width="45" height="45" viewBox="0 0 45 45" fill="none" xmlns="http://www.w3.org/2000/svg">
<g id="twitter_icon 1" style="mix-blend-mode:luminosity" clip-path="url(#clip0_6_217)">
<g id="g3763">
<path id="rect2987" d="M39.375 0H5.625C2.5184 0 0 2.5184 0 5.625V39.375C0 42.4816 2.5184 45 5.625 45H39.375C42.4816 45 45 42.4816 45 39.375V5.625C45 2.5184 42.4816 0 39.375 0Z" fill="#00ABF1"/>
<g id="layer1_2_">
<path id="path5_1_" d="M40.0781 11.5964C38.7847 12.1704 37.3951 12.5578 35.936 12.7323C37.4245 11.8397 38.5683 10.4258 39.1072 8.74234C37.7136 9.56891 36.1696 10.1685 34.5263 10.4921C33.2113 9.09004 31.3362 8.21448 29.2622 8.21448C25.2786 8.21448 22.0489 11.4442 22.0489 15.4274C22.0489 15.9925 22.1128 16.5427 22.236 17.0713C16.2412 16.7697 10.9271 13.8989 7.36955 9.53438C6.74856 10.5997 6.393 11.8383 6.393 13.1609C6.393 15.6634 7.6659 17.8707 9.60142 19.1641C8.41966 19.1265 7.30771 18.8023 6.33453 18.2623C6.33415 18.2919 6.33415 18.3223 6.33415 18.3528C6.33415 21.8472 8.8206 24.7621 12.1198 25.4259C11.5145 25.5898 10.8771 25.6786 10.22 25.6786C9.75464 25.6786 9.3032 25.6321 8.86324 25.5488C9.78082 28.4138 12.4448 30.4994 15.6004 30.5576C13.1325 32.4925 10.0223 33.6457 6.64222 33.6457C6.06062 33.6457 5.48651 33.6114 4.92188 33.544C8.11459 35.5913 11.9057 36.7856 15.9787 36.7856C29.2453 36.7856 36.5004 25.795 36.5004 16.2639C36.5004 15.9505 36.4932 15.6397 36.4799 15.3301C37.888 14.3129 39.1117 13.0431 40.0781 11.5964Z" fill="white"/>
</g>
</g>
</g>
<defs>
<clipPath id="clip0_6_217">
<rect width="45" height="45" fill="white"/>
</clipPath>
</defs>
</svg>
